<?xml version="1.0" encoding="UTF-8" standalone="no"?>
<!DOCTYPE svg PUBLIC "-//W3C//DTD SVG 1.1//EN" "http://www.w3.org/Graphics/SVG/1.1/DTD/svg11.dtd">
<svg width="100%" height="100%" viewBox="0 0 1950 1950" version="1.1" xmlns="http://www.w3.org/2000/svg" xmlns:xlink="http://www.w3.org/1999/xlink" xml:space="preserve" xmlns:serif="http://www.serif.com/" style="fill-rule:evenodd;clip-rule:evenodd;stroke-linejoin:round;stroke-miterlimit:2;">
    <g transform="matrix(1,0,0,1,-157,0)">
        <g id="Artboard1" transform="matrix(1,0,0,1,-49.2345,-202.967)">
            <rect x="206.235" y="202.967" width="1949.82" height="1949.82" style="fill:none;"/>
            <g transform="matrix(0.875261,-0.184253,0.189517,0.900268,-60.3707,189.239)">
                <g transform="matrix(0.989752,0.142795,-0.142795,0.989752,103.275,-46.0421)">
                    <path d="M512.912,543.243C536.534,543.243 1924.31,338.781 1924.31,338.781L1752.26,625.904L1920.51,1792.08L509.119,1996.54L681.568,1712.24L512.912,543.243ZM632.134,629.81L789.79,1722.57L703.566,1864.72L1801.7,1708.34L1643.75,613.57L1729.98,471.42L632.134,629.81Z" style="fill:rgb(255,0,249);"/>
                </g>
                <g>
                    <g transform="matrix(1.66683,0.00542609,-0.00571215,1.7547,-504.127,-1398.59)">
                        <path d="M692.142,1848.47L723.705,1811.79L721.624,1204.54L816.687,1203.77L817.892,1555.42L881.269,1555.23L882.272,1847.91L692.142,1848.47Z" style="fill:rgb(255,0,0);"/>
                    </g>
                    <g transform="matrix(1.66683,0.00542609,-0.00571215,1.7547,-179.182,-1398.2)">
                        <path d="M719.012,1847.95L718.009,1555.26L749.699,1555.42L748.495,1204.23L843.56,1203.94L844.763,1555.12L876.452,1555.03L877.454,1847.46L719.012,1847.95Z" style="fill:rgb(255,0,0);"/>
                    </g>
                    <g transform="matrix(1.66683,0.00542609,-0.00571215,1.7547,136.569,-1397.76)">
                        <path d="M719.712,1847.95L718.709,1555.26L782.086,1555.07L780.881,1203.41L907.635,1203.49L876.048,1232.86L878.154,1847.46C892.828,1847.4 776.968,1847.78 719.712,1847.95Z" style="fill:rgb(255,0,0);"/>
                    </g>
                </g>
            </g>
        </g>
    </g>
</svg>
